<?xml version="1.0" encoding="UTF-8"?>
<svg width="752pt" height="752pt" version="1.1" viewBox="0 0 752 752" xmlns="http://www.w3.org/2000/svg">
 <g>
  <path d="m752 376c0 134.33-71.664 258.46-188 325.62-116.34 67.168-259.66 67.168-376 0-116.34-67.164-188-191.29-188-325.62s71.664-258.46 188-325.62c116.34-67.168 259.66-67.168 376 0 116.34 67.164 188 191.29 188 325.62" fill="#ffd65b"/>
  <path d="m548.89 181.36c-34.383-17.305-171.98-17.305-171.98-17.305s-137.18 0-171.47 17.305c0 0-9.8203 184.3 0 264.93 0.95313 7.8555 3.3281 15.527 6.9102 23.008 32.828 69.371 164.57 120.99 164.57 120.99s135.6-52.984 166.27-123.71c2.918-6.6211 4.8477-13.375 5.7031-20.285 9.8242-80.621-0.003907-264.93-0.003907-264.93zm-313.46 253.77c2.4375-2.4727 14.672-7.3516 14.672-7.3516h-12.234s0-12.266 4.8828-12.266c0 0-9.793-4.8789-19.582 0 0 0 0-2.4375 2.4727-4.8789l-4.9102-1.6133c-0.25391-4.8477-0.47266-9.8555-0.66797-15.023 6.5273 0.85547 18.473 2.6016 20.25 4.3711 2.4375 2.4727-2.4375-7.3203-2.4375-7.3203s17.145 9.793 24.5 9.793c0 0-2.4727 0-2.4727-4.9102h4.9102l19.582 24.492v2.4375s-19.582 19.617-24.5 19.617h-17.145c0 0.003906-9.793-4.9102-7.3203-7.3477zm210.61 83.25c-2.4375 0 2.4375-9.793 2.4375-9.793-2.4375-2.4375-22.027 0-22.027 0 0-2.4375 2.4375-7.3516 2.4375-7.3516-7.3516-2.4375-19.582 9.8203-19.582 9.8203-7.3516 2.4375-9.793 0-22.055-2.4727-12.234-2.4375-19.582-7.3516-34.289-7.3516-14.672 0-29.375 4.9102-29.375 4.9102s-36.727-4.9102-39.199-7.3516c-2.4375-2.4375-2.4375-4.8828-2.4375-4.8828 4.9102-2.4727 9.793-2.4727 9.793-2.4727-2.4375-2.4375-14.703-7.3516-14.703-7.3516 0-4.8789 14.703-14.672 14.703-14.672-14.703-2.4727-31.848 7.3516-31.848 7.3516l-4.8789-2.4727-2.4375-7.3516c2.4375-4.8789 44.082-7.3203 44.082-7.3203s-9.793-2.4727-7.3516-4.9102c2.4375-2.4375 19.582 0 19.582 0l-2.4375-4.9102c2.4375-4.8789 17.145-4.8789 17.145-4.8789 7.3516 24.492 93.074 41.641 117.54 41.641 24.5 0 19.617 7.3516 22.055 14.672 2.4297 7.3555-17.152 17.148-17.152 17.148zm85.086-79.227c-2.2148 18.223-13.117 35.461-28.172 51.051-1.7422-3.8633-3.0391-7.8281-3.0391-10.996 0-9.793 5.5234-19.934 9.793-29.41 13.113-29.117 9.918-49.754-13.469-76.594-19.461-22.305-74.676-20.938-91.816-28.293-13.055-5.5781-25.719-22.438-29.84-29.98-1.6797-3.0742-2.1211-6.75-0.76172-9.9492 1.2031-2.918 3.4844-5.168 5.957-7.2891 10.012-8.4648 31.086-11.152 37.457-11.789 1.2344-0.12891 2.3789-0.66797 3.2344-1.5547l4.2461-4.2148c1.1094-1.1406 1.7422-2.6289 1.7422-4.2148v-6.4648c0-2.0586-1.1094-3.9297-2.918-4.9102l-22.121-12.07c-1.1758-0.63281-1.9023-1.8711-1.9023-3.2031v-0.44531c0-1.4258-0.73047-2.7578-1.9336-3.5195l-25.004-15.906s-2.6602-7.1328-0.60156-13.277c0.25391-0.73047-0.31641-1.5195-1.1094-1.5859-4.1211-0.22266-14.543 0.03125-17.43 8.2695-0.37891 1.0469-1.3633 1.7773-2.4727 1.9023-5.3555 0.56641-19.996 2.4375-23.926 5.5469-1.0117 0.78906-2.3789 0.95313-3.582 0.47266-4.5664-1.7109-14.035-4.3438-19.461 1.1094-6.8438 6.8438-9.4414 9.4414-5.8008 19.676 0.53906 1.4922 0.28516 3.2031-0.66797 4.5-6.8438 9.3164-30.836 41.703-39.422 59.609-2.0273 4.2148-2.9805 8.875-2.918 13.562 0.12891 7.8281-0.78906 23.891-9.9844 27.57 0 0-7.5117 5.6055-25.797 10.301-0.92969-76.051 3.8203-165.48 3.8203-165.48 30.707-15.461 153.72-15.461 153.72-15.461s123.37 0 154.17 15.461c0.007813 0 8.8477 165.26 0.007813 237.57z"/>
 </g>
</svg>
